<svg xmlns="http://www.w3.org/2000/svg" version="1.1" xmlns:xlink="http://www.w3.org/1999/xlink" width="512" height="512" x="0" y="0" viewBox="0 0 128 128" style="enable-background:new 0 0 512 512" xml:space="preserve" class=""><g><path fill="#e6e7e8" d="M103.671 10.463H28.329c-9.925 0-18 8.075-18 18V103.536c0 9.925 8.075 18 18 18h75.342c9.925 0 18-8.075 18-18V28.463c0-9.925-8.075-18-18-18z" opacity="1" data-original="#e6e7e8" class=""></path><path fill="#ffd7e5" d="M34.149 53.534a4.543 4.543 0 0 1 4.543-4.543H62V7.463H24.329c-9.389 0-17 7.611-17 17v37.671h26.82z" opacity="1" data-original="#ffd7e5"></path><path fill="#6dc9f7" d="M34.149 53.534a4.543 4.543 0 0 1 4.543-4.543h8.114a12.722 12.722 0 0 0-7.895-9.756 8.387 8.387 0 0 0 3.463-4.841c.042.004.082.016.125.016.993 0 1.771-.987 1.771-2.248 0-1.193-.699-2.13-1.615-2.229l.012-6.915a3.144 3.144 0 0 0-3.144-3.144h-.8s-1.349-2.608-4.328-2.608c-2.609 0-4.115 1.956-6.602 2.426-1.578.298-3.74-.936-3.74-.936s.042 2.242 1.38 4.113c.2.28.454.489.454.489v6.574c-.916.099-1.615 1.036-1.615 2.229 0 1.26.778 2.248 1.771 2.248.043 0 .083-.012.125-.016a8.387 8.387 0 0 0 3.463 4.841c-4.722 1.854-8.067 6.45-8.067 11.83v2.821a1 1 0 0 0 1 1h11.587v-1.351z" opacity="1" data-original="#6dc9f7" class=""></path><path fill="#ffffff" d="m42.657 27.771.008-4.754c0-.013-.004-.024-.004-.037l-.008 4.79.004.001zM24.329 7.463c-9.389 0-17 7.611-17 17v3c0-9.389 7.611-17 17-17H62v-3z" opacity="1" data-original="#ffffff" class=""></path><path fill="#d4fbff" d="M99.671 7.463H62V48.99h23.308a4.543 4.543 0 0 1 4.543 4.543v8.601h26.82V24.463c0-9.388-7.611-17-17-17z" opacity="1" data-original="#d4fbff" class=""></path><path fill="#ffffff" d="M99.671 7.463H62v3h37.671c9.389 0 17 7.611 17 17v-3c0-9.388-7.611-17-17-17z" opacity="1" data-original="#ffffff" class=""></path><path fill="#0089ef" d="M102.435 27.603h-2.536a10.908 10.908 0 0 0-1.133-2.445l1.879-1.879a1.417 1.417 0 0 0 0-2.003l-1.786-1.786a1.417 1.417 0 0 0-2.003 0l-1.906 1.906c-.011.011-.025.016-.036.027a10.836 10.836 0 0 0-2.38-1.017l-.002-.012v-2.695c0-.782-.634-1.416-1.416-1.416H88.59c-.782 0-1.416.634-1.416 1.416v2.509c-.937.2-1.826.525-2.657.949L82.85 19.49a1.417 1.417 0 0 0-2.003 0l-1.786 1.786a1.417 1.417 0 0 0 0 2.003l1.41 1.41c-.613.886-1.1 1.865-1.432 2.914H77.27c-.782 0-1.416.634-1.416 1.416v2.526c0 .782.634 1.416 1.416 1.416h1.461a10.868 10.868 0 0 0 1.263 3.39l-.933.933a1.417 1.417 0 0 0 0 2.003l1.786 1.786c.553.553 1.45.553 2.003 0l.876-.876a10.852 10.852 0 0 0 3.448 1.396v1.27c0 .782.634 1.416 1.416 1.416h2.526c.782 0 1.416-.634 1.416-1.416v-1.468a10.89 10.89 0 0 0 3.15-1.497l1.174 1.174c.553.553 1.45.553 2.003 0l1.786-1.786a1.417 1.417 0 0 0 0-2.003l-1.431-1.431c.459-.9.799-1.87.994-2.893h2.228c.782 0 1.416-.634 1.416-1.416V29.02a1.418 1.418 0 0 0-1.417-1.417zm-7.452 3.299a5.515 5.515 0 1 1-11.03 0 5.515 5.515 0 0 1 11.03 0z" opacity="1" data-original="#0089ef" class=""></path><path fill="#6dc9f7" d="M38.692 75.009a4.543 4.543 0 0 1-4.543-4.543v-8.332H7.329v37.402c0 9.389 7.611 17 17 17H62V75.009z" opacity="1" data-original="#6dc9f7" class=""></path><path fill="#fa759e" d="M89.851 62.134v8.332a4.543 4.543 0 0 1-4.543 4.543H62v41.527h37.671c9.389 0 17-7.611 17-17V62.134z" opacity="1" data-original="#fa759e" class=""></path><g fill="#6dc9f7"><path d="M75.756 89.477a2.878 2.878 0 0 0-2.878 2.878v1.809a2.878 2.878 0 0 0 2.878 2.878h2.068v-7.565zM102.915 89.477h-2.077v7.565h2.077a2.878 2.878 0 0 0 2.878-2.878v-1.809a2.878 2.878 0 0 0-2.878-2.878z" fill="#6dc9f7" opacity="1" data-original="#6dc9f7" class=""></path></g><path fill="#0089ef" d="M85.308 48.991H38.692a4.543 4.543 0 0 0-4.543 4.543v16.932a4.543 4.543 0 0 0 4.543 4.543h46.616a4.543 4.543 0 0 0 4.543-4.543V53.534a4.543 4.543 0 0 0-4.543-4.543z" opacity="1" data-original="#0089ef" class=""></path><g fill="#fff"><path d="M54.392 63.565c0 .377-.092.785-.279 1.223-.186.439-.477.869-.876 1.292-.398.423-.907.766-1.526 1.029-.618.264-1.34.396-2.164.396-.624 0-1.192-.059-1.703-.178s-.975-.303-1.393-.553a4.679 4.679 0 0 1-1.15-.989 5.85 5.85 0 0 1-.799-1.247c-.221-.46-.387-.951-.497-1.473s-.165-1.076-.165-1.663c0-.953.139-1.806.416-2.559s.674-1.398 1.191-1.933c.517-.536 1.122-.943 1.816-1.223s1.435-.42 2.22-.42c.958 0 1.811.191 2.559.573s1.321.855 1.72 1.417c.398.562.597 1.094.597 1.595 0 .274-.096.517-.29.726a.922.922 0 0 1-.702.315c-.307 0-.537-.073-.69-.218s-.325-.396-.513-.751c-.312-.587-.679-1.025-1.102-1.316-.422-.291-.943-.436-1.562-.436-.985 0-1.769.374-2.354 1.122-.584.748-.876 1.811-.876 3.189 0 .92.129 1.686.388 2.297.258.611.624 1.067 1.098 1.368.473.302 1.027.452 1.663.452.688 0 1.271-.171 1.748-.513.476-.341.835-.843 1.078-1.506.102-.312.228-.566.379-.763s.392-.295.726-.295c.285 0 .53.1.735.298.204.201.307.448.307.744zM59.768 62.241h-.839v3.803c0 .5-.11.869-.331 1.106s-.509.355-.864.355c-.383 0-.678-.124-.888-.371-.21-.248-.315-.611-.315-1.09v-9.107c0-.517.115-.89.347-1.122.232-.231.605-.347 1.122-.347h3.9c.538 0 .998.023 1.381.069.382.046.726.139 1.033.278a3.002 3.002 0 0 1 1.635 1.683c.148.385.222.793.222 1.223 0 .883-.249 1.588-.747 2.115-.497.528-1.252.902-2.264 1.122.425.226.831.56 1.219 1.001.388.442.734.911 1.038 1.409.303.498.541.947.71 1.348.17.401.255.677.255.827 0 .156-.05.311-.149.464-.1.153-.236.275-.408.363a1.281 1.281 0 0 1-.597.134c-.27 0-.496-.063-.679-.19a1.813 1.813 0 0 1-.472-.48 18.871 18.871 0 0 1-.537-.856l-.961-1.598c-.345-.587-.653-1.034-.924-1.34-.272-.307-.548-.517-.828-.63-.28-.112-.633-.169-1.059-.169zm1.373-4.973h-2.212v3.254h2.148c.576 0 1.06-.049 1.453-.149.393-.099.693-.269.9-.509s.311-.569.311-.989a1.52 1.52 0 0 0-.251-.868 1.515 1.515 0 0 0-.694-.561c-.28-.118-.831-.178-1.655-.178zM72.435 65.519l-1.897-7.54v8.17c0 .452-.101.791-.303 1.017s-.469.339-.803.339c-.323 0-.587-.112-.792-.335-.204-.223-.307-.564-.307-1.021v-9.365c0-.517.134-.865.404-1.045.269-.18.632-.27 1.09-.27h.743c.446 0 .771.04.972.121a.822.822 0 0 1 .449.436c.096.21.207.552.331 1.026l1.72 6.483 1.72-6.483c.124-.474.234-.815.331-1.026a.82.82 0 0 1 .448-.436c.202-.081.526-.121.973-.121h.743c.458 0 .821.09 1.09.27.269.181.404.529.404 1.045v9.365c0 .452-.101.791-.303 1.017-.201.226-.472.339-.811.339-.317 0-.578-.113-.782-.339-.205-.226-.308-.565-.308-1.017v-8.17l-1.897 7.54c-.124.49-.224.849-.303 1.078a1.49 1.49 0 0 1-.432.626c-.209.188-.5.283-.872.283-.28 0-.517-.061-.711-.182s-.345-.276-.452-.464a2.63 2.63 0 0 1-.254-.626 61.421 61.421 0 0 1-.191-.715z" fill="#ffffff" opacity="1" data-original="#ffffff" class=""></path></g><g fill="#0089ef"><path d="m27.174 94.331-5.08 12.016 5.651-2.293 2.293 5.65 4.384-10.37-.76-1.797a9.716 9.716 0 0 1-6.488-3.206zM41.671 94.331a9.716 9.716 0 0 1-7.248 3.244c-.256 0-.508-.019-.76-.038l5.144 12.167 2.293-5.65 5.65 2.293z" fill="#0089ef" opacity="1" data-original="#0089ef" class=""></path></g><circle cx="34.423" cy="87.823" r="9.752" fill="#fa759e" transform="rotate(-45 34.409 87.836)" opacity="1" data-original="#fa759e" class=""></circle><g fill="#3a2c60"><path d="m34.269 39.401-1.35 1.435a.615.615 0 0 0-.131.627l.506 1.411a.612.612 0 0 0 .577.406h.795c.259 0 .49-.162.577-.406l.506-1.411a.613.613 0 0 0-.131-.627z" fill="#3a2c60" opacity="1" data-original="#3a2c60" class=""></path><path d="M99.671 6.463H24.329c-9.925 0-18 8.075-18 18V99.536c0 9.925 8.075 18 18 18h75.342c9.925 0 18-8.075 18-18V24.463c0-9.925-8.075-18-18-18zm16 18v36.671H90.852v-7.601a5.549 5.549 0 0 0-5.543-5.543H63V8.463h36.671c8.822 0 16 7.178 16 16zm-107.342 0c0-8.822 7.178-16 16-16H61V47.99H47.608c-.87-3.827-3.316-7.105-6.823-8.989a9.366 9.366 0 0 0 2.35-3.676c1.236-.329 2.134-1.602 2.134-3.166 0-1.334-.642-2.453-1.614-2.955l.012-6.189a4.148 4.148 0 0 0-4.144-4.144h-.253c-.643-.902-2.21-2.608-4.876-2.608-1.713 0-3.024.719-4.183 1.354-.854.469-1.662.912-2.604 1.09-.983.187-2.58-.55-3.061-.822a1 1 0 0 0-1.494.887c.002.104.064 2.577 1.565 4.677.088.123.181.233.268.329v5.427c-.973.501-1.615 1.62-1.615 2.955 0 1.564.897 2.837 2.135 3.166a9.351 9.351 0 0 0 2.35 3.676c-4.418 2.373-7.192 6.946-7.192 12.062v2.821c0 1.103.897 2 2 2H33.15v5.249H8.329zm27.002 24.672-.207-4.657a.613.613 0 0 0-.612-.586h-.485a.612.612 0 0 0-.612.586l-.418 9.407H22.562v-2.821c0-4.849 2.918-9.126 7.433-10.899a.999.999 0 0 0 .191-1.761 7.375 7.375 0 0 1-3.052-4.263 1.001 1.001 0 0 0-1.061-.743l-.07.01c-.401-.033-.733-.591-.733-1.247 0-.714.375-1.197.723-1.234a1 1 0 0 0 .893-.994v-6.575c0-.295-.135-.578-.359-.768a1.88 1.88 0 0 1-.281-.303 6.348 6.348 0 0 1-.896-1.886c.801.257 1.758.436 2.629.272 1.254-.237 2.241-.777 3.195-1.301 1.084-.594 2.021-1.107 3.221-1.107 2.312 0 3.397 1.988 3.439 2.067.172.332.515.541.889.541h.801c1.182 0 2.144.961 2.144 2.142l-.013 6.916a1 1 0 0 0 .893.996c.348.038.723.52.723 1.234 0 .654-.33 1.209-.729 1.246a1.01 1.01 0 0 0-1.135.734 7.375 7.375 0 0 1-3.052 4.263 1 1 0 0 0 .191 1.761 11.61 11.61 0 0 1 7 7.826h-6.854c-1.265 0-2.427.43-3.361 1.144zM8.329 99.537V63.134h24.819v7.332a5.549 5.549 0 0 0 5.543 5.543H61v39.527H24.329c-8.822.001-16-7.177-16-15.999zm107.342 0c0 8.822-7.178 16-16 16H63V76.009h1.54a1 1 0 1 0 0-2H38.691a3.547 3.547 0 0 1-3.543-3.543V53.534a3.547 3.547 0 0 1 3.543-3.543h46.617a3.547 3.547 0 0 1 3.543 3.543v16.932a3.547 3.547 0 0 1-3.543 3.543h-3.872a1 1 0 1 0 0 2h3.872a5.55 5.55 0 0 0 5.543-5.543v-7.332h24.819v36.403z" fill="#3a2c60" opacity="1" data-original="#3a2c60" class=""></path><path d="M89.468 37.417c3.593 0 6.516-2.922 6.516-6.515s-2.923-6.515-6.516-6.515c-3.592 0-6.515 2.923-6.515 6.515s2.923 6.515 6.515 6.515zm0-11.03a4.52 4.52 0 0 1 4.516 4.515 4.52 4.52 0 0 1-4.516 4.515 4.52 4.52 0 0 1-4.515-4.515 4.52 4.52 0 0 1 4.515-4.515z" fill="#3a2c60" opacity="1" data-original="#3a2c60" class=""></path><path d="M77.268 33.962h.664c.201.76.479 1.498.829 2.207l-.409.41a2.42 2.42 0 0 0 0 3.417l1.787 1.787a2.42 2.42 0 0 0 3.417-.001l.334-.334c.733.391 1.496.701 2.282.927v.491a2.42 2.42 0 0 0 2.416 2.417h2.526a2.42 2.42 0 0 0 2.417-2.417v-.742c.7-.253 1.373-.57 2.011-.947l.605.605c.94.941 2.475.943 3.417 0l1.787-1.787a2.42 2.42 0 0 0 0-3.417l-.935-.934c.239-.548.436-1.11.587-1.683h1.431a2.42 2.42 0 0 0 2.417-2.417V29.02a2.42 2.42 0 0 0-2.417-2.417h-1.829a11.78 11.78 0 0 0-.591-1.28l1.336-1.336c.457-.457.708-1.063.708-1.709s-.251-1.252-.708-1.708l-1.786-1.786c-.912-.913-2.505-.914-3.417 0l-1.412 1.412a12.229 12.229 0 0 0-1.204-.514v-1.981a2.42 2.42 0 0 0-2.417-2.417h-2.526a2.42 2.42 0 0 0-2.416 2.417v1.73c-.49.142-.974.316-1.447.523l-1.17-1.169c-.912-.913-2.503-.913-3.417 0l-1.786 1.786a2.42 2.42 0 0 0 0 3.417l.841.841a11.768 11.768 0 0 0-.863 1.775h-1.062a2.42 2.42 0 0 0-2.416 2.417v2.526a2.419 2.419 0 0 0 2.416 2.415zm-.416-4.942c0-.229.187-.417.416-.417h1.77a1 1 0 0 0 .954-.699 9.817 9.817 0 0 1 1.3-2.645 1 1 0 0 0-.115-1.276l-1.41-1.41a.418.418 0 0 1 0-.589l1.786-1.786c.213-.213.376-.212.589 0l1.667 1.667a.998.998 0 0 0 1.161.184 9.802 9.802 0 0 1 2.412-.861 1 1 0 0 0 .791-.978v-2.509c0-.229.187-.417.416-.417h2.526c.229 0 .417.187.417.417v2.695a.999.999 0 0 0 .721.972 9.858 9.858 0 0 1 2.161.923c.346.198.774.172 1.091-.061.054-.038.11-.084.152-.126l1.905-1.905c.215-.213.378-.21.589 0l1.786 1.787a.415.415 0 0 1 0 .589l-1.878 1.878a1 1 0 0 0-.144 1.233 9.932 9.932 0 0 1 1.031 2.221 1 1 0 0 0 .953.698h2.535c.229 0 .417.187.417.417v2.526a.419.419 0 0 1-.417.417h-2.228a.999.999 0 0 0-.982.813 9.863 9.863 0 0 1-.902 2.625.998.998 0 0 0 .184 1.161l1.432 1.431a.418.418 0 0 1 0 .589l-1.787 1.787a.417.417 0 0 1-.589 0l-1.174-1.174a1 1 0 0 0-1.276-.115 9.852 9.852 0 0 1-2.86 1.36 1 1 0 0 0-.72.96v1.467a.419.419 0 0 1-.417.417h-2.526a.417.417 0 0 1-.416-.417v-1.27a1 1 0 0 0-.791-.978 9.842 9.842 0 0 1-3.131-1.269.996.996 0 0 0-1.233.143l-.874.875a.42.42 0 0 1-.591 0l-1.786-1.787a.418.418 0 0 1 0-.589l.934-.934a.999.999 0 0 0 .159-1.207c-.556-.964-.942-2-1.147-3.078a1 1 0 0 0-.982-.813H77.27a.417.417 0 0 1-.416-.417V29.02zM89.336 77.936c-6.431 0-11.834 4.386-13.177 10.542h-.404a3.881 3.881 0 0 0-3.878 3.877v1.809a3.882 3.882 0 0 0 3.878 3.878h2.068a1 1 0 0 0 1-1v-7.564a.996.996 0 0 0-.638-.927c1.269-5.052 5.794-8.615 11.15-8.615 5.385 0 9.911 3.562 11.154 8.612a.993.993 0 0 0-.652.93v7.564a1 1 0 0 0 1 1h.008v1.064a3.855 3.855 0 0 1-3.851 3.851h-4.98a2.046 2.046 0 0 0-1.947-1.434h-.794a2.053 2.053 0 0 0-2.053 2.053v.794c0 1.134.919 2.053 2.053 2.053h.794c.928 0 1.704-.62 1.957-1.466h4.97a5.858 5.858 0 0 0 5.851-5.851v-1.064h.069a3.882 3.882 0 0 0 3.878-3.878v-1.809a3.881 3.881 0 0 0-3.878-3.877h-.399c-1.312-6.157-6.716-10.542-13.179-10.542zM76.824 96.042h-1.068a1.88 1.88 0 0 1-1.878-1.878v-1.809a1.88 1.88 0 0 1 1.878-1.877h1.068zm27.969-3.687v1.809a1.88 1.88 0 0 1-1.878 1.878h-1.077v-5.564h1.077a1.879 1.879 0 0 1 1.878 1.877zM77.824 75.009a1 1 0 0 0-1-1h-7.856a1 1 0 1 0 0 2h7.856a1 1 0 0 0 1-1zM42.83 94.506a10.691 10.691 0 0 0 2.344-6.682c0-5.928-4.823-10.751-10.751-10.751-5.929 0-10.752 4.823-10.752 10.751 0 2.526.881 4.846 2.344 6.683l-4.841 11.452a1 1 0 0 0 1.297 1.316l4.724-1.917 1.917 4.723a1 1 0 0 0 .92.624h.007a1 1 0 0 0 .921-.61l3.464-8.192 3.463 8.192a1 1 0 0 0 .921.611h.007a1 1 0 0 0 .92-.624l1.917-4.723 4.725 1.917a1 1 0 0 0 1.297-1.317zm-8.407-15.434c4.825 0 8.751 3.926 8.751 8.751s-3.926 8.752-8.751 8.752c-4.826 0-8.752-3.926-8.752-8.752s3.926-8.751 8.752-8.751zm-4.366 28.019-1.385-3.413a1 1 0 0 0-1.303-.551l-3.413 1.385 3.572-8.45a10.71 10.71 0 0 0 5.442 2.403l.367.868zm11.419-3.964a1.002 1.002 0 0 0-1.303.551l-1.385 3.413-3.616-8.554a10.697 10.697 0 0 0 6.145-2.475l3.572 8.45z" fill="#3a2c60" opacity="1" data-original="#3a2c60" class=""></path></g><path fill="#ffd7e5" d="m35.374 83.055.882 2.714h2.853c.969 0 1.371 1.24.588 1.809l-2.309 1.677.882 2.714c.299.921-.755 1.687-1.539 1.118l-2.309-1.677-2.309 1.677c-.784.569-1.838-.197-1.539-1.118l.882-2.714-2.309-1.677c-.784-.569-.381-1.809.588-1.809h2.853l.882-2.714c.301-.921 1.604-.921 1.904 0z" opacity="1" data-original="#ffd7e5"></path></g></svg>