<svg xmlns="http://www.w3.org/2000/svg" version="1.1" xmlns:xlink="http://www.w3.org/1999/xlink" width="512" height="512" x="0" y="0" viewBox="0 0 256 256" style="enable-background:new 0 0 512 512" xml:space="preserve" class=""><g><circle cx="82.759" cy="71.559" r="12.5" fill="#f87023" opacity="1" data-original="#f87023"></circle><circle cx="171.053" cy="71.559" r="12.5" fill="#f8af23" opacity="1" data-original="#f8af23"></circle><path fill="#63bce7" d="M194.594 205.189H61.406v-18.056a53.944 53.944 0 0 1 53.944-53.944h23.111a53.944 53.944 0 0 1 53.944 53.944z" opacity="1" data-original="#63bce7"></path><path fill="#6377e7" d="M133.851 133.189h-18.5a53.944 53.944 0 0 0-53.944 53.944v18.056h18.5v-18.056a53.944 53.944 0 0 1 53.944-53.944z" opacity="1" data-original="#6377e7"></path><rect width="27" height="53.419" x="113.406" y="97.186" fill="#f8af23" rx="13.5" opacity="1" data-original="#f8af23"></rect><path fill="#f87023" d="M113.406 110.686v26.419a13.554 13.554 0 0 0 11.686 13.378V97.309a13.554 13.554 0 0 0-11.686 13.377z" opacity="1" data-original="#f87023"></path><rect width="88.294" height="110.075" x="82.759" y="14.206" fill="#f8af23" rx="44.147" opacity="1" data-original="#f8af23"></rect><path fill="#f87023" d="M101.259 80.134V58.353a44.314 44.314 0 0 1 34.9-43.157 43.876 43.876 0 0 0-9.25-.99 44.277 44.277 0 0 0-44.15 44.147v21.781a44.277 44.277 0 0 0 44.147 44.147 43.876 43.876 0 0 0 9.25-.99 44.314 44.314 0 0 1-34.897-43.157z" opacity="1" data-original="#f87023"></path><path fill="#f46275" d="m113.406 133.223 13.5 17.591-14.625 7.875-5.917-24.755 7.042-7.995zM140.406 133.223l-13.5 17.591 14.625 7.875 5.918-24.755-7.043-7.995z" opacity="1" data-original="#f46275"></path><path fill="#3f3679" d="M116.447 84.835a2.779 2.779 0 0 1-2.779 2.78 2.779 2.779 0 0 1-2.777-2.78v-3.9a2.779 2.779 0 0 1 2.777-2.779 2.78 2.78 0 0 1 2.779 2.779z" opacity="1" data-original="#3f3679"></path><path fill="#9e9e9e" d="M163.71 10.421a22.328 22.328 0 0 0-17.4 8.312 43.732 43.732 0 0 0-19.4-4.528 44.277 44.277 0 0 0-44.151 44.148v9.78h7.272v-5.9s14.722-3.714 14.861-19.964c0 0 18.732 16.629 52.487 11.988a22.375 22.375 0 1 0 6.331-43.836z" opacity="1" data-original="#9e9e9e"></path><path fill="#707070" d="M136.132 15.2a43.768 43.768 0 0 0-9.226-1 44.277 44.277 0 0 0-44.147 44.153v9.78h7.272v-5.9a21.634 21.634 0 0 0 11.45-8.284A44.36 44.36 0 0 1 136.132 15.2z" opacity="1" data-original="#707070"></path><path fill="#f8af23" d="m156.182 121.109 26.348-9.464 3.281 9.135-26.348 9.464z" opacity="1" data-original="#f8af23"></path><path fill="#63bce7" d="m159.458 130.24 26.348-9.464 23.547 65.557a13.998 13.998 0 0 1-8.442 17.906 13.998 13.998 0 0 1-17.906-8.442l-23.547-65.557z" opacity="1" data-original="#63bce7"></path><path fill="#f46275" d="m159.462 130.244 26.348-9.464 2.79 7.765-26.349 9.464z" opacity="1" data-original="#f46275"></path><circle cx="145.132" cy="75.459" r="16.815" fill="#9e9e9e" transform="rotate(-31.68 145.077 75.475)" opacity="1" data-original="#9e9e9e"></circle><rect width="10.506" height="28.812" x="159.555" y="92.959" fill="#f46275" rx="5.253" transform="rotate(-31.68 164.739 107.377)" opacity="1" data-original="#f46275"></rect><path fill="#f8af23" d="m162.595 101.086 3.543-4.86a2.768 2.768 0 0 1 3.867-.607l15.525 11.317a2.768 2.768 0 0 1 .606 3.867l-3.543 4.86a5.59 5.59 0 0 1-7.811 1.225l-10.963-7.991a5.59 5.59 0 0 1-1.224-7.81z" opacity="1" data-original="#f8af23"></path><path fill="#f8af23" d="m159.461 130.337-5.719-8.887a5 5 0 0 1-.73-3.509l1.236-7.591a5 5 0 0 1 2.464-3.543l8.571-4.873a3.571 3.571 0 0 1 5.126 1.9 3.571 3.571 0 0 1-1.512 4.26l-8.634 5.226a24.845 24.845 0 0 1 10.26 13.052z" opacity="1" data-original="#f8af23"></path><path fill="#3f3679" d="M148.92 84.835a2.781 2.781 0 0 1-2.781 2.78 2.779 2.779 0 0 1-2.777-2.78v-3.9a2.779 2.779 0 0 1 2.777-2.779 2.781 2.781 0 0 1 2.781 2.779z" opacity="1" data-original="#3f3679"></path><path fill="#6377e7" d="M211.344 224.277v2.848a6.719 6.719 0 0 1-6.7 6.7H51.355a6.719 6.719 0 0 1-6.7-6.7v-2.848z" opacity="1" data-original="#6377e7"></path><path fill="#63bce7" d="M55.816 145.033h144.367v88.791H55.816z" opacity="1" data-original="#63bce7"></path><path fill="#6377e7" d="M55.816 145.033h18.5v88.792h-18.5z" opacity="1" data-original="#6377e7"></path><path fill="#63e2e7" d="M181.684 145.033h18.5v88.792h-18.5z" opacity="1" data-original="#63e2e7"></path><circle cx="128.002" cy="189.429" r="11.555" fill="#9e9e9e" opacity="1" data-original="#9e9e9e"></circle><path fill="#f46275" d="M20.508 99.386v35.522h45.837V99.386L43.427 87.927z" opacity="1" data-original="#f46275"></path><path fill="#63bce7" d="m72.171 94.1-27.1-13.552a3.668 3.668 0 0 0-3.28 0L14.682 94.1a3.667 3.667 0 1 0 3.28 6.559l2.182-1.091 23.283-11.641L66.71 99.568l2.182 1.091a3.667 3.667 0 1 0 3.28-6.559z" opacity="1" data-original="#63bce7"></path><path fill="#f8af23" d="M197.508 107.876h10.539v27.032h-10.539z" opacity="1" data-original="#f8af23"></path><path fill="#63bce7" d="M215.157 98.468h10.539v36.44h-10.539z" opacity="1" data-original="#63bce7"></path><path fill="#f8af23" d="M232.806 89.06h10.539v45.847h-10.539zM51.927 123.161h-17l-3-14.521h23z" opacity="1" data-original="#f8af23"></path><rect width="5.687" height="14.5" x="40.583" y="98.932" fill="#63bce7" rx="2.844" opacity="1" data-original="#63bce7"></rect><circle cx="220.427" cy="72.526" r="15.286" fill="#f8af23" opacity="1" data-original="#f8af23"></circle><g fill="#3f3679"><path d="M81.586 85.5a45.755 45.755 0 0 0 30.32 37.736v2.136l-6.322 7.177A55.431 55.431 0 0 0 81.1 143.533H55.816a1.5 1.5 0 0 0-1.5 1.5v77.744h-9.661a1.5 1.5 0 0 0-1.5 1.5v2.848a8.16 8.16 0 0 0 1.865 5.2H25.89a1.5 1.5 0 0 0 0 3h204.22a1.5 1.5 0 0 0 0-3h-19.13a8.16 8.16 0 0 0 1.865-5.2v-2.848a1.5 1.5 0 0 0-1.5-1.5h-9.661v-17.122a15.513 15.513 0 0 0 9.067-19.7l-9.014-25.128c-.014-.04-.036-.075-.054-.113v-15.681a1.5 1.5 0 0 0-1.5-1.5h-4.649l-5.52-15.388-2.786-7.767-2.069-5.766 2.185-3a4.267 4.267 0 0 0-.937-5.964l-15.528-11.313a4.316 4.316 0 0 0-.512-.3 45.069 45.069 0 0 0 1.863-8.533 13.987 13.987 0 0 0 .306-27.848q-.021-1.318-.117-2.633a23.872 23.872 0 1 0-26.5-38.137 44.922 44.922 0 0 0-19.01-4.177 45.691 45.691 0 0 0-45.631 44.945 13.987 13.987 0 0 0 .308 27.848zm45.32 40.28a45.411 45.411 0 0 0 12-1.609v8.543l-8.3 10.818h-7.394l-8.3-10.818v-8.546a45.522 45.522 0 0 0 11.994 1.612zm25.573-3.52 5.627 8.74 1.789 4.989a55.056 55.056 0 0 0-11.666-3.442l-6.323-7.179v-2.138a45.361 45.361 0 0 0 9.565-4.683 6.475 6.475 0 0 0 1.008 3.714zm.692-33.767a15.277 15.277 0 1 1 .01-.006zm4.861 7.887a3.767 3.767 0 0 1 5.168 1.22l.009.012-1.833 2.517a7.091 7.091 0 0 0-1.247 3.005l-1.728.983-1.589-2.577a3.759 3.759 0 0 1 1.222-5.163zm-.581 11.729 8.57-4.873a2.071 2.071 0 0 1 2.1 3.571l-8.635 5.226a1.5 1.5 0 0 0 .062 2.6 23.361 23.361 0 0 1 9.016 10.843l-8.485 3.043-5.079-7.881a3.5 3.5 0 0 1-.512-2.456l1.236-7.592a3.487 3.487 0 0 1 1.728-2.481zm25.525 9.3.921 2.565-12.511 4.488a28.7 28.7 0 0 0-1.238-2.591 6.617 6.617 0 0 0 5.134-3.078 7 7 0 0 0 2.774.593 7.182 7.182 0 0 0 1.116-.087 7.04 7.04 0 0 0 3.806-1.887zM141.6 134.137a1.5 1.5 0 0 0 .311-.913v-3.312l3.9 4.432-2.2 9.19h-9.228zm6.981 1.534a52.051 52.051 0 0 1 12.726 4.244l1.3 3.618H146.7zm12.8-4.428 7.026-2.521 16.507-5.921 1.773 4.943-23.532 8.441zm10.2-12.892a3.737 3.737 0 0 1-3.533.206 26.34 26.34 0 0 0-5.012-5.167l2.453-1.485 7.262 5.29a3.7 3.7 0 0 1-1.169 1.156zm-59.676 11.561v3.313a1.5 1.5 0 0 0 .31.913l7.211 9.4H110.2l-2.2-9.191zm-6.667 5.773 1.877 7.849H86.237a52.387 52.387 0 0 1 19.002-7.85zm-59.083 91.44v-1.348h8.161v6.547h-2.962a5.2 5.2 0 0 1-5.199-5.199zm163.689-1.348v1.348a5.2 5.2 0 0 1-5.2 5.2h-2.962v-6.547zm-1.918-38.812a12.513 12.513 0 0 1-6.243 15.428v-32.832zm-9.243 45.359H57.316v-85.791h141.368zm-32.9-88.791-1.623-4.524 23.532-8.441 4.65 12.965zm18.854-35.461a1.267 1.267 0 0 1 .277 1.771l-3.542 4.862a4.089 4.089 0 0 1-5.715.9l-7.39-5.383 1.4-.846a5.066 5.066 0 0 0-4.842-8.89l2.511-3.447a1.267 1.267 0 0 1 1.771-.277zm-2.59-36.513a11.009 11.009 0 0 1-9.565 10.9c.039-.772.065-1.545.065-2.321V60.663a10.965 10.965 0 0 1 9.506 10.897zm-12.5-13.206v21.78a42.229 42.229 0 0 1-2.221 13.53 4.213 4.213 0 0 0-2.27 1.444 6.75 6.75 0 0 0-7.233-1.919l-1.84-2.988a18.308 18.308 0 1 0-27.453-7.029v10.718a1.5 1.5 0 0 0 1.5 1.5c.021 0 .042-.005.063-.006a3.139 3.139 0 0 1-.063 6.277 1.5 1.5 0 0 0 0 3 6.138 6.138 0 0 0 1.5-12.09v-4.857a18.172 18.172 0 0 0 9.377 5.567 18.408 18.408 0 0 0 4.259.5 18.137 18.137 0 0 0 8.268-2l1.839 2.984a6.76 6.76 0 0 0-1.018 8.356l1.539 2.5a6.462 6.462 0 0 0-3.028 4.493l-.72 4.424c-.014.009-.029.015-.042.025a42.209 42.209 0 0 1-25.1 8.224A42.694 42.694 0 0 1 84.26 80.134v-10.5h5.771a1.5 1.5 0 0 0 1.5-1.5V63.32c3.377-1.235 13.221-5.858 14.681-18.138 6.026 4.264 23.558 14.284 51.056 10.6a23.868 23.868 0 0 0 12.211.176c.044.802.074 1.601.074 2.396zm-85.293 0A42.694 42.694 0 0 1 126.9 15.707a41.988 41.988 0 0 1 18.74 4.372 1.5 1.5 0 0 0 1.83-.4 20.872 20.872 0 1 1 10.33 33.14 1.517 1.517 0 0 0-.628-.048c-32.615 4.487-51.1-11.464-51.286-11.624a1.5 1.5 0 0 0-2.5 1.109c-.128 14.854-13.176 18.381-13.729 18.523a1.5 1.5 0 0 0-1.133 1.454v4.4H84.26v-8.279zm-3 2.31v19.471q0 1.167.059 2.32a10.994 10.994 0 0 1-.059-21.792z" fill="#3f3679" opacity="1" data-original="#3f3679"></path><path d="M122.121 110.832a6.392 6.392 0 0 1-1.882-4.546 1.5 1.5 0 0 0-3 0 9.431 9.431 0 0 0 16.095 6.666 1.5 1.5 0 1 0-2.121-2.121 6.438 6.438 0 0 1-9.092.001zM121.647 74.14a1.5 1.5 0 0 0-.325-2.1 10.913 10.913 0 0 0-8.461-2.033 9.82 9.82 0 0 0-6.487 4.18 1.5 1.5 0 0 0 2.512 1.641 6.809 6.809 0 0 1 4.514-2.869 7.94 7.94 0 0 1 6.151 1.5 1.5 1.5 0 0 0 2.096-.319zM152.243 72.043a10.921 10.921 0 0 0-8.461-2.033 9.821 9.821 0 0 0-6.488 4.18 1.5 1.5 0 0 0 2.512 1.641 6.813 6.813 0 0 1 4.515-2.869 7.94 7.94 0 0 1 6.151 1.5 1.5 1.5 0 0 0 1.771-2.422zM25.89 244.079H7.39a1.5 1.5 0 1 0 0 3h18.5a1.5 1.5 0 0 0 0-3zM248.61 244.079h-18.5a1.5 1.5 0 0 0 0 3h18.5a1.5 1.5 0 0 0 0-3zM215.337 244.079H40.663a1.5 1.5 0 0 0 0 3h174.674a1.5 1.5 0 0 0 0-3zM7.39 235.324h7.943a1.5 1.5 0 1 0 0-3H7.39a1.5 1.5 0 1 0 0 3zM239.167 233.824a1.5 1.5 0 0 0 1.5 1.5h7.943a1.5 1.5 0 0 0 0-3h-7.943a1.5 1.5 0 0 0-1.5 1.5zM128 202.483a13.055 13.055 0 1 0-13.056-13.055A13.07 13.07 0 0 0 128 202.483zm0-23.109a10.055 10.055 0 1 1-10.056 10.055A10.066 10.066 0 0 1 128 179.374zM14.688 102.281a5.136 5.136 0 0 0 3.944-.28l.375-.187v33.094a1.5 1.5 0 0 0 1.5 1.5h45.839a1.5 1.5 0 0 0 1.5-1.5v-33.095l.374.187a5.166 5.166 0 1 0 4.622-9.241L45.736 79.206a5.2 5.2 0 0 0-4.62 0l-27.1 13.553a5.166 5.166 0 0 0 .677 9.522zm50.157-1.968v33.094H22.008v-33.094L43.427 89.6zm-49.491-4.871 27.1-13.553a2.182 2.182 0 0 1 1.938 0L71.5 95.442a2.165 2.165 0 0 1 .969 2.907 2.195 2.195 0 0 1-2.906.968L44.1 86.585a1.5 1.5 0 0 0-1.342 0L17.291 99.317a2.166 2.166 0 1 1-1.937-3.875zM197.508 136.407h10.539a1.5 1.5 0 0 0 1.5-1.5v-27.031a1.5 1.5 0 0 0-1.5-1.5h-10.539a1.5 1.5 0 0 0-1.5 1.5v27.031a1.5 1.5 0 0 0 1.5 1.5zm1.5-27.031h7.539v24.031h-7.539zM215.157 96.968a1.5 1.5 0 0 0-1.5 1.5v36.439a1.5 1.5 0 0 0 1.5 1.5H225.7a1.5 1.5 0 0 0 1.5-1.5V98.468a1.5 1.5 0 0 0-1.5-1.5zm9.039 36.439h-7.539V99.968h7.543zM231.306 89.061v45.847a1.5 1.5 0 0 0 1.5 1.5h10.54a1.5 1.5 0 0 0 1.5-1.5V89.061a1.5 1.5 0 0 0-1.5-1.5h-10.54a1.5 1.5 0 0 0-1.5 1.5zm3 1.5h7.54v42.847h-7.54z" fill="#3f3679" opacity="1" data-original="#3f3679"></path><path d="M33.458 123.465a1.5 1.5 0 0 0 1.469 1.2h17a1.5 1.5 0 0 0 1.469-1.2l3-14.521a1.5 1.5 0 0 0-1.469-1.8h-7.156v-5.363a4.344 4.344 0 1 0-8.687 0v5.363h-7.157a1.5 1.5 0 0 0-1.469 1.8zm8.625-21.688a1.344 1.344 0 0 1 2.688 0v8.813a1.344 1.344 0 1 1-2.687 0zm-3 8.363v.449a4.344 4.344 0 1 0 8.688 0v-.449h5.314l-2.38 11.521H36.148l-2.38-11.521zM220.427 89.312a16.786 16.786 0 1 0-16.786-16.785 16.8 16.8 0 0 0 16.786 16.785zm0-30.571a13.786 13.786 0 1 1-13.786 13.786 13.8 13.8 0 0 1 13.786-13.787z" fill="#3f3679" opacity="1" data-original="#3f3679"></path><path d="M228.179 72.517v5.321a1.46 1.46 0 0 1-.466 1.079 1.527 1.527 0 0 1-1.106.457h-4.681v3.748a1.467 1.467 0 0 1-.457 1.088 1.49 1.49 0 0 1-1.079.448 1.532 1.532 0 0 1-1.115-.448 1.466 1.466 0 0 1-.457-1.088v-3.785h-4.644a1.488 1.488 0 0 1-1.079-.448 1.466 1.466 0 0 1-.457-1.088 1.529 1.529 0 0 1 1.536-1.536h10.861v-2.212H214.21a1.5 1.5 0 0 1-1.088-.439 1.471 1.471 0 0 1-.448-1.1v-5.3a1.53 1.53 0 0 1 1.536-1.536h4.607V61.93a1.517 1.517 0 0 1 1.591-1.536 1.461 1.461 0 0 1 1.07.448 1.482 1.482 0 0 1 .448 1.088v3.748h4.717a1.528 1.528 0 0 1 1.106.457 1.462 1.462 0 0 1 .466 1.079 1.593 1.593 0 0 1-1.572 1.572h-10.86v2.194h10.824a1.528 1.528 0 0 1 1.106.457 1.461 1.461 0 0 1 .466 1.08z" fill="#3f3679" opacity="1" data-original="#3f3679"></path></g></g></svg>