<svg xmlns="http://www.w3.org/2000/svg" version="1.1" xmlns:xlink="http://www.w3.org/1999/xlink" width="512" height="512" x="0" y="0" viewBox="0 0 512 512" style="enable-background:new 0 0 512 512" xml:space="preserve" class=""><g><g fill-rule="evenodd" clip-rule="evenodd"><path fill="#eceff1" d="M30.968 145.184h385.56v241.424H30.968z" opacity="1" data-original="#eceff1"></path><path fill="#4e434d" d="M311.405 470.763H136.097c-9.212 0-16.71-7.499-16.71-16.719s7.498-16.719 16.71-16.719h70.93v-50.716a5.003 5.003 0 0 1 4.999-4.999h23.439a5.005 5.005 0 0 1 5.008 4.999v50.716h70.93c9.211 0 16.71 7.499 16.71 16.719.002 9.22-7.497 16.719-16.708 16.719z" opacity="1" data-original="#4e434d"></path><path fill="#615260" d="M311.405 470.763H136.097c-9.212 0-16.71-7.499-16.71-16.719 0-2.551.575-4.97 1.6-7.135a16.606 16.606 0 0 1 9.297-2.834h76.743V388.36h22.626a5.005 5.005 0 0 1 5.008 4.999v50.716h70.93c9.212 0 16.71 7.499 16.71 16.719 0 2.551-.575 4.97-1.6 7.135a16.6 16.6 0 0 1-9.296 2.834z" opacity="1" data-original="#615260"></path><path fill="#615260" d="M35.967 381.61h375.567V150.185H35.967zm380.558 10.007H30.968a5.005 5.005 0 0 1-4.999-5.008V145.186a4.998 4.998 0 0 1 4.999-4.999h385.556a4.994 4.994 0 0 1 5.008 4.999v241.423a5.001 5.001 0 0 1-5.007 5.008z" opacity="1" data-original="#615260"></path><path fill="#4e434d" d="M456.971 461.455c-7.437.009-14.892-2.823-20.547-8.495l-54.325-54.317-6.057 23.134c-2.534 9.649-9.378 15.88-17.462 15.88h-.052c-8.329-.035-15.338-6.494-17.864-16.466l-31.156-122.634c-1.058-4.186-1.722-8.906 1.503-12.122 3.207-3.216 7.927-2.56 12.122-1.494l122.625 31.148c9.972 2.534 16.43 9.544 16.465 17.864.026 8.101-6.205 14.98-15.871 17.514l-23.142 6.065 54.325 54.317c11.327 11.335 11.327 29.776 0 41.111-5.671 5.663-13.117 8.495-20.564 8.495z" opacity="1" data-original="#4e434d"></path><path fill="#615260" d="M456.971 461.455c-7.437.009-14.892-2.823-20.547-8.495l-62.038-62.028-9.662 36.904c-1.016 3.867-2.724 7.184-4.927 9.772-.402.032-.809.049-1.218.049h-.052c-8.329-.035-15.338-6.494-17.864-16.466l-31.156-122.634c-.679-2.688-1.195-5.594-.625-8.182.989.159 1.975.382 2.933.625l122.625 31.148c9.972 2.534 16.431 9.544 16.465 17.864.014 4.379-1.801 8.4-4.997 11.571l-36.467 9.557 56.776 56.767c11.327 11.335 11.327 29.776 0 41.111-.486.485-.985.949-1.495 1.392a29.252 29.252 0 0 1-7.751 1.045z" opacity="1" data-original="#615260"></path><path fill="#ffd266" d="M314.035 46.236c41.207 0 74.619 33.411 74.619 74.61 0 41.207-33.411 74.61-74.619 74.61-41.207 0-74.61-33.403-74.61-74.61 0-41.198 33.403-74.61 74.61-74.61z" opacity="1" data-original="#ffd266"></path><path fill="#cfaa53" d="M314.035 51.244c-38.375 0-69.602 31.227-69.602 69.602 0 38.384 31.227 69.611 69.602 69.611 38.385 0 69.611-31.227 69.611-69.611 0-38.375-31.226-69.602-69.611-69.602zm0 149.211c-43.899 0-79.6-35.71-79.6-79.609 0-43.89 35.701-79.609 79.6-79.609 43.908 0 79.609 35.719 79.609 79.609 0 43.899-35.701 79.609-79.609 79.609z" opacity="1" data-original="#cfaa53"></path><path fill="#e6bd5c" d="M314.035 51.244c-.514 0-1.026.008-1.537.02a71.447 71.447 0 0 0-1.538-.02c-38.375 0-69.602 31.227-69.602 69.602 0 38.384 31.227 69.611 69.602 69.611.514 0 1.026-.008 1.538-.02.511.011 1.023.02 1.537.02 38.385 0 69.611-31.227 69.611-69.611 0-38.375-31.226-69.602-69.611-69.602zm-1.537-9.987c43.2.823 78.071 36.213 78.071 79.589 0 43.385-34.871 78.767-78.071 79.589-43.191-.823-78.063-36.204-78.063-79.589 0-43.376 34.871-78.766 78.063-79.589z" opacity="1" data-original="#e6bd5c"></path><path fill="#cfaa53" d="M314.542 172.865a4.992 4.992 0 0 1-4.999-4.999v-11.903h-19.087a5.01 5.01 0 0 1-4.999-4.999c0-2.762 2.246-5.008 4.999-5.008h35.806c5.847 0 10.619-4.763 10.619-10.619 0-5.855-4.772-10.618-10.619-10.618h-23.439c-11.37 0-20.617-9.247-20.617-20.617s9.247-20.617 20.617-20.617h6.721V71.572a4.992 4.992 0 0 1 4.999-4.999 4.998 4.998 0 0 1 4.999 4.999v11.912h19.07a4.998 4.998 0 0 1 4.999 4.999 5.003 5.003 0 0 1-4.999 4.999h-35.788c-5.864 0-10.619 4.763-10.619 10.619s4.755 10.619 10.619 10.619h23.439c11.37 0 20.617 9.246 20.617 20.617 0 11.37-9.247 20.626-20.617 20.626h-6.721v11.903a5 5 0 0 1-5 4.999z" opacity="1" data-original="#cfaa53"></path><path fill="#e6bd5c" d="M313.322 172.715a4.994 4.994 0 0 1-3.779-4.85v-11.903H290.455a5.01 5.01 0 0 1-4.999-4.999c0-2.762 2.246-5.008 4.999-5.008h35.807c5.847 0 10.619-4.763 10.619-10.619 0-5.855-4.772-10.618-10.619-10.618H302.822c-11.37 0-20.617-9.247-20.617-20.617s9.247-20.617 20.617-20.617h6.721V71.572a4.995 4.995 0 0 1 3.779-4.85 5 5 0 0 1 3.782 4.85v11.912h19.07a4.998 4.998 0 0 1 4.999 4.999 5.003 5.003 0 0 1-4.999 4.999h-35.789c-5.864 0-10.619 4.763-10.619 10.619s4.755 10.619 10.619 10.619H323.825c11.37 0 20.617 9.246 20.617 20.617 0 11.37-9.247 20.626-20.617 20.626h-6.721v11.903a5 5 0 0 1-3.782 4.849z" opacity="1" data-original="#e6bd5c"></path><path fill="#e4404d" d="M138.876 367.679c-2.194 0-4.405-.288-6.599-.874-6.511-1.748-11.947-5.908-15.303-11.711l-27.005-46.783c-.778-1.355-.883-3.006-.271-4.448s1.861-2.517 3.382-2.902a26.373 26.373 0 0 0 6.738-2.735l24.785-14.307c.044-.026.096-.053.131-.079.979-.516 1.958-1.023 2.936-1.521 2.368-1.206 5.253-.341 6.59 1.958l26.35 45.63c6.939 12.026 2.797 27.46-9.22 34.408a24.986 24.986 0 0 1-12.514 3.364z" opacity="1" data-original="#e4404d"></path><path fill="#fd4755" d="M138.876 367.679c-2.194 0-4.405-.288-6.599-.874-6.511-1.748-11.947-5.908-15.303-11.711l-27.005-46.783a5.016 5.016 0 0 1-.286-4.412c.255-.137.509-.277.76-.423l6.945-4.009c.829-.371 1.64-.784 2.43-1.241l18.333-10.582.145-.074c2.368-1.206 5.253-.341 6.59 1.958l26.35 45.63c6.076 10.53 3.655 23.673-5.108 31.444a24.939 24.939 0 0 1-7.252 1.077z" opacity="1" data-original="#fd4755"></path><path fill="#e4404d" d="M86.596 311.78c-12.637 0-24.943-6.563-31.716-18.274-4.859-8.425-6.153-18.266-3.61-27.722 2.534-9.456 8.574-17.348 16.99-22.207l24.716-14.272c21.691-13.477 38.952-32.765 49.912-55.794a5.008 5.008 0 0 1 4.308-2.849 5.05 5.05 0 0 1 4.536 2.5l55.794 96.651c.935 1.599.892 3.592-.096 5.165a5 5 0 0 1-4.632 2.316c-25.415-2.028-50.751 3.269-73.256 15.32l-24.724 14.272a36.277 36.277 0 0 1-18.222 4.894z" opacity="1" data-original="#e4404d"></path><path fill="#fd4755" d="M68.641 307.091a36.412 36.412 0 0 1-13.761-13.585c-4.859-8.425-6.153-18.266-3.61-27.722 2.534-9.456 8.574-17.348 16.99-22.207l24.716-14.272c20.919-12.997 37.717-31.4 48.717-53.35l51.583 89.358c.935 1.599.892 3.592-.096 5.165a5 5 0 0 1-4.632 2.316c-25.415-2.028-50.751 3.269-73.255 15.32l-24.724 14.272a36.277 36.277 0 0 1-18.222 4.894c-1.241 0-2.477-.064-3.706-.189z" opacity="1" data-original="#fd4755"></path><path fill="#e4404d" d="M199.232 278.334c-13.861 0-32.363-19.559-45.323-42.003-15.102-26.166-23.046-56.895-9.01-64.997 14.044-8.11 36.68 14.141 51.791 40.299 15.102 26.166 23.055 56.895 9.011 65.005-2.003 1.154-4.171 1.696-6.469 1.696z" opacity="1" data-original="#e4404d"></path><g fill="#cd3a45"><path d="M199.232 278.334c-13.861 0-32.363-19.559-45.323-42.003-13.029-22.575-20.728-48.543-13.584-60.449 14.013-1.633 33.464 18.58 46.934 41.899 13.031 22.579 20.737 48.552 13.583 60.461-.529.062-1.066.092-1.61.092zM215.461 223.598c-.428 0-.865-.053-1.302-.166a5.005 5.005 0 0 1-3.531-6.127c2.395-8.949-2.936-18.178-11.877-20.573a5 5 0 0 1-3.54-6.126 5.009 5.009 0 0 1 6.118-3.539c14.28 3.828 22.784 18.554 18.965 32.834a5.006 5.006 0 0 1-4.833 3.697zm23.073 6.188a5.005 5.005 0 0 0 4.824-3.706c7.228-26.997-8.836-54.85-35.841-62.086-2.666-.717-5.41.874-6.126 3.54a5.013 5.013 0 0 0 3.539 6.126c21.666 5.803 34.583 28.159 28.771 49.833-.708 2.665.874 5.41 3.54 6.118.428.122.873.175 1.293.175z" fill="#cd3a45" opacity="1" data-original="#cd3a45"></path></g></g></g></svg>