<svg xmlns="http://www.w3.org/2000/svg" version="1.1" xmlns:xlink="http://www.w3.org/1999/xlink" width="512" height="512" x="0" y="0" viewBox="0 0 32 32" style="enable-background:new 0 0 512 512" xml:space="preserve" class=""><g><path fill="#6f7070" d="M25.413 22.775V7.474a1.58 1.58 0 0 0-1.579-1.579H1.622A1.58 1.58 0 0 0 .043 7.474v15.301z" opacity="1" data-original="#6f7070"></path><path fill="#fdbc4b" d="M1.622 7.474h22.212v14.823H1.622z" opacity="1" data-original="#fdbc4b"></path><path fill="#e5e5e5" d="M.043 22.3v2.172a1.58 1.58 0 0 0 1.579 1.579h22.212a1.58 1.58 0 0 0 1.579-1.579V22.3z" opacity="1" data-original="#e5e5e5"></path><path fill="#cacaca" d="M8.458 26.051h8.54v3.066h-8.54z" opacity="1" data-original="#cacaca"></path><path fill="#e5e5e5" d="M18.925 29.117H6.53a.713.713 0 1 0 0 1.426h12.395a.713.713 0 1 0 0-1.426z" opacity="1" data-original="#e5e5e5"></path><path fill="#cacaca" d="M13.2 24.965h-.943a.79.79 0 1 1 0-1.58h.943a.79.79 0 1 1 0 1.58z" opacity="1" data-original="#cacaca"></path><path fill="#01010107" d="m8.458 26.051 8.54 1.968v-1.968z" opacity="1" data-original="#01010107"></path><path fill="#ffcc5b" d="M7.744 22.3a1.11 1.11 0 0 0 0-2.22H6.26a.93.93 0 0 1-.928-.933v-.012l-.002-.068a.878.878 0 0 1 .878-.932h3.546c.601 0 1.14-.45 1.171-1.05a1.11 1.11 0 0 0-1.108-1.17H7.628a.93.93 0 0 1-.93-.936v-.077a.983.983 0 0 1 .981-.987h.226c.601 0 1.14-.45 1.171-1.05a1.11 1.11 0 0 0-1.108-1.17H5.691c-.536 0-.936-.45-.93-.987v-.026c-.006-.536.394-.987.93-.987h.917c.601 0 1.14-.45 1.171-1.05a1.11 1.11 0 0 0-1.108-1.17h-5.05V22.3z" opacity="1" data-original="#ffcc5b"></path><path fill="#d9dadb" d="M4.011 23.4H2.397a.775.775 0 0 0 0 1.55h1.614a.775.775 0 0 0 0-1.55zM6.055 23.4h-.097a.775.775 0 0 0 0 1.55h.097a.775.775 0 0 0 0-1.55z" opacity="1" data-original="#d9dadb"></path><path fill="#01010110" d="M25.413 24.472V9.334l-8.978 2.526-2.446 3.35 10.626 10.626a1.57 1.57 0 0 0 .798-1.364z" opacity="1" data-original="#01010110"></path><path fill="#464646" d="m21.05 13.42 2.17-2.17 3.603 3.602-2.17 2.172z" opacity="1" data-original="#464646"></path><path fill="#e95454" d="M31.379 21.574a1.975 1.975 0 0 1-2.793 0l-4.24-4.24 2.793-2.793 4.24 4.24a1.975 1.975 0 0 1 0 2.793z" opacity="1" data-original="#e95454"></path><circle cx="19.085" cy="9.279" r="7.823" fill="#464646" opacity="1" data-original="#464646"></circle><circle cx="19.085" cy="9.279" r="5.951" fill="#3789c9" opacity="1" data-original="#3789c9"></circle><path fill="#ed6362" d="m31.379 18.781-4.24-4.24-1.488 1.488a.597.597 0 0 0 .844.844l.564-.564a.5.5 0 0 1 .708.002l.005.005.027.025a.473.473 0 0 1 .021.688l-.896.896c-.229.229-.262.604-.046.845a.596.596 0 0 0 .866.023l1.091-1.091a.501.501 0 0 1 .71.002l.024.025.005.005a.527.527 0 0 1 .002.748l-.551.551c-.228.228-.262.604-.046.845a.596.596 0 0 0 .866.023l.619-.619c.204-.204.527-.185.729.022l.005.005.005.005c.206.202.226.525.022.729l-.704.704c-.228.228-.262.604-.046.845a.592.592 0 0 0 .822.052c.027-.024.058-.042.084-.068a1.98 1.98 0 0 0-.002-2.795z" opacity="1" data-original="#ed6362"></path><path fill="#ffffff" d="m14.371 9.866.661-.064c.04.222.121.385.242.489.122.104.286.156.492.156.219 0 .384-.046.495-.139s.166-.201.166-.325c0-.08-.023-.147-.07-.203s-.128-.104-.244-.146a7.885 7.885 0 0 0-.544-.147c-.364-.09-.62-.201-.767-.333a.874.874 0 0 1-.31-.677c0-.171.049-.332.146-.481s.237-.263.42-.341.404-.117.662-.117c.422 0 .74.093.954.278s.326.432.337.741l-.679.03c-.029-.173-.091-.297-.187-.373s-.239-.114-.43-.114c-.197 0-.352.041-.464.122a.257.257 0 0 0-.007.413c.086.072.294.147.624.225.331.078.575.159.733.242s.282.197.372.342.134.323.134.536a.994.994 0 0 1-.616.917c-.196.082-.44.123-.732.123-.425 0-.752-.098-.98-.295-.228-.196-.364-.483-.408-.859zM17.679 10.961V7.596h2.495v.569h-1.816v.746h1.689v.567h-1.689v.916h1.88v.567zM20.677 9.299c0-.343.051-.63.154-.863.077-.171.181-.325.313-.461s.277-.237.435-.303c.21-.089.451-.133.725-.133.496 0 .893.154 1.19.461s.446.735.446 1.283c0 .543-.148.968-.443 1.275s-.69.46-1.184.46c-.5 0-.898-.153-1.194-.458-.295-.305-.442-.726-.442-1.261zm.7-.023c0 .381.088.67.264.867s.399.295.67.295.493-.098.667-.293.261-.488.261-.878c0-.386-.085-.673-.254-.863s-.394-.285-.674-.285-.506.096-.677.288-.257.482-.257.869z" opacity="1" data-original="#ffffff"></path></g></svg>