<svg xmlns="http://www.w3.org/2000/svg" version="1.1" xmlns:xlink="http://www.w3.org/1999/xlink" width="512" height="512" x="0" y="0" viewBox="0 0 64 64" style="enable-background:new 0 0 512 512" xml:space="preserve" class=""><g><g data-name="Fill Outline"><path fill="#aae1f9" d="M6 33h28v22H6z" opacity="1" data-original="#aae1f9"></path><path fill="#f9e109" d="M3 55h34v2a4 4 0 0 1-4 4H7a4 4 0 0 1-4-4v-2z" opacity="1" data-original="#f9e109"></path><path fill="#57b7eb" d="M10 41v-8H6v22h28v-4H20a10 10 0 0 1-10-10z" opacity="1" data-original="#57b7eb"></path><path fill="#fcbc04" d="M9 58a3 3 0 0 1-3-3H3v2a4 4 0 0 0 4 4h26a4 4 0 0 0 3.86-3z" opacity="1" data-original="#fcbc04"></path><rect width="16" height="16" x="45" y="34" fill="#c4f236" rx="2" opacity="1" data-original="#c4f236"></rect><circle cx="53" cy="42" r="3" fill="#57b7eb" opacity="1" data-original="#57b7eb"></circle><path fill="#a1d51c" d="M48 39v-5h-1a2 2 0 0 0-2 2v12a2 2 0 0 0 2 2h12a2 2 0 0 0 2-2v-1h-5a8 8 0 0 1-8-8z" opacity="1" data-original="#a1d51c"></path><circle cx="54" cy="41" r="1" fill="#aae1f9" opacity="1" data-original="#aae1f9"></circle><path fill="#c4f236" d="M3 12h12v16H3z" opacity="1" data-original="#c4f236"></path><circle cx="27" cy="10" r="8" fill="#f89c8d" opacity="1" data-original="#f89c8d"></circle><path fill="#aae1f9" d="M25 13V7l6 3z" opacity="1" data-original="#aae1f9"></path><path fill="#f8664f" d="M30 15a8 8 0 0 1-8-8 7.9 7.9 0 0 1 1.05-3.95A8 8 0 1 0 34 14a7.9 7.9 0 0 1-4 1z" opacity="1" data-original="#f8664f"></path><rect width="16" height="16" x="45" y="3" fill="#aae1f9" rx="2" opacity="1" data-original="#aae1f9"></rect><path fill="#57b7eb" d="M48 8V3h-1a2 2 0 0 0-2 2v12a2 2 0 0 0 2 2h12a2 2 0 0 0 2-2v-1h-5a8 8 0 0 1-8-8z" opacity="1" data-original="#57b7eb"></path><path fill="#a1d51c" d="M6 19v-7H3v16h12v-3h-3a6 6 0 0 1-6-6z" opacity="1" data-original="#a1d51c"></path><path fill="#f8664f" d="m19.062 43.165 3.464-2 4 6.928a2 2 0 0 1-.732 2.732 2 2 0 0 1-2.732-.732l-4-6.928z" opacity="1" data-original="#f8664f"></path><path fill="#cc5144" d="m25.06 45.55-2.53-4.39-3.47 2 2.37 4.1 1.73-1z" opacity="1" data-original="#cc5144"></path><path fill="#c4f236" d="m40.25 37.86-17.09 6.4-5-8.66L32.25 24z" opacity="1" data-original="#c4f236"></path><path fill="#f89c8d" d="m13.834 38.101 4.33-2.5 5 8.66-4.33 2.5a3 3 0 0 1-4.098-1.098l-2-3.464a3 3 0 0 1 1.098-4.098z" opacity="1" data-original="#f89c8d"></path><path fill="#cc5144" d="m10.997 43.197 1.732-1 2 3.464-1.732 1a2 2 0 0 1-2.732-.732 2 2 0 0 1 .732-2.732z" opacity="1" data-original="#cc5144"></path><path fill="#a1d51c" d="M24.32 41.2a2.09 2.09 0 0 0-.3.14l-1.91 1.1 1.05 1.82 17.09-6.4L39 35.7z" opacity="1" data-original="#a1d51c"></path><path fill="#f8664f" d="M21.56 42.76a5 5 0 0 1-7.46-4.82l-.27.16a3 3 0 0 0-1.1 4.1l2 3.46a3 3 0 0 0 4.1 1.1l4.33-2.5-1.05-1.82z" opacity="1" data-original="#f8664f"></path><g fill="#39519d"><path d="M37 54h-2v-9.8a1 1 0 0 0-2 0V54H7V34h8.32a1 1 0 0 0 0-2H6a1 1 0 0 0-1 1v21H3a1 1 0 0 0-1 1v2a5 5 0 0 0 5 5h26a5 5 0 0 0 5-5v-2a1 1 0 0 0-1-1zm-1 3a3 3 0 0 1-3 3h-2v-1a1 1 0 0 0-2 0v1H11v-1a1 1 0 0 0-2 0v1H7a3 3 0 0 1-3-3v-1h32zM54 8h2a1 1 0 0 0 0-2h-2a3 3 0 0 0-3 3v1h-1a1 1 0 0 0 0 2h1v3a1 1 0 0 0 2 0v-3h1a1 1 0 0 0 0-2h-1V9a1 1 0 0 1 1-1z" fill="#39519d" opacity="1" data-original="#39519d"></path><path d="M59 2H47a3 3 0 0 0-3 3v2a1 1 0 0 0 2 0V5a1 1 0 0 1 1-1h12a1 1 0 0 1 1 1v12a1 1 0 0 1-1 1H47a1 1 0 0 1-1-1v-6a1 1 0 0 0-2 0v6a3 3 0 0 0 3 3h12a3 3 0 0 0 3-3V5a3 3 0 0 0-3-3zM49 42a4 4 0 1 0 4-4 4 4 0 0 0-4 4zm6 0a2 2 0 1 1-2-2 2 2 0 0 1 2 2z" fill="#39519d" opacity="1" data-original="#39519d"></path><path d="M59 33H47a3 3 0 0 0-3 3v12a3 3 0 0 0 3 3h12a3 3 0 0 0 3-3v-2a1 1 0 0 0-2 0v2a1 1 0 0 1-1 1H47a1 1 0 0 1-1-1V36a1 1 0 0 1 1-1h12a1 1 0 0 1 1 1v6a1 1 0 0 0 2 0v-6a3 3 0 0 0-3-3zM24.47 13.85A1 1 0 0 0 25 14a1 1 0 0 0 .45-.11l6-3a1 1 0 0 0 0-1.78l-6-3A1 1 0 0 0 24 7v6a1 1 0 0 0 .47.85zM26 8.62 28.76 10 26 11.38z" fill="#39519d" opacity="1" data-original="#39519d"></path><path d="M27 19a9 9 0 1 0-9-9 9 9 0 0 0 9 9zm0-16a7 7 0 1 1-7 7 7 7 0 0 1 7-7zM37 23a1 1 0 0 0 .8-.4l3-4a1 1 0 0 0-1.6-1.2l-3 4a1 1 0 0 0 .2 1.4 1 1 0 0 0 .6.2zM39.2 26.6a1 1 0 0 0 .8.4 1 1 0 0 0 .6-.2l4-3a1 1 0 1 0-1.2-1.6l-4 3a1 1 0 0 0-.2 1.4zM49 28.8a1 1 0 0 0-1.2-.8l-5 1a1 1 0 0 0 .2 2h.2l5-1a1 1 0 0 0 .8-1.2zM3 29h12a1 1 0 0 0 1-1V12a1 1 0 0 0-1-1H3a1 1 0 0 0-1 1v16a1 1 0 0 0 1 1zm1-16h10v14H4z" fill="#39519d" opacity="1" data-original="#39519d"></path><path d="M11 15H9a1 1 0 0 0 0 2h2a1 1 0 0 0 0-2zM11 19H7a1 1 0 0 0 0 2h4a1 1 0 0 0 0-2zM11 23H7a1 1 0 0 0 0 2h4a1 1 0 0 0 0-2zM36.12 28.7a1 1 0 0 0-1.74 1l4.41 7.63-16 6H22.64l-2.6 1.5-1.73 1a2 2 0 0 1-1.52.2 2 2 0 0 1-1.21-.93l-2-3.46a2 2 0 0 1 .75-2.64l3.46-2 2.5 4.33a1 1 0 0 0 .87.5 1 1 0 0 0 .87-1.5l-2.58-4.46L32 25.52l.41.71a1 1 0 1 0 1.74-1l-1-1.73a1 1 0 0 0-.69-.48 1 1 0 0 0-.82.21l-14 11.54-4.26 2.46a4 4 0 0 0-1.84 4.53l-1 .57a3 3 0 0 0 .72 5.5 3 3 0 0 0 .78.1 3.06 3.06 0 0 0 1.5-.4l1-.57A3.88 3.88 0 0 0 16.29 48a3.79 3.79 0 0 0 1.05.14 3.94 3.94 0 0 0 2-.54l.87-.5 2 3.47a3 3 0 0 0 4.09 1.1 3 3 0 0 0 1.1-4.1l-1.82-3.17 15-5.63a1 1 0 0 0 .59-.6 1 1 0 0 0-.07-.83zM12.5 45.79a1 1 0 0 1-.76.1 1 1 0 0 1-.61-.46 1 1 0 0 1-.1-.76 1 1 0 0 1 .47-.61l.87-.5 1 1.73zm13.16 2.8a1 1 0 0 1 .1.76 1 1 0 0 1-.47.6 1 1 0 0 1-1.36-.36l-2-3.47 1.66-.95h.08z" fill="#39519d" opacity="1" data-original="#39519d"></path></g></g></g></svg>